<svg width="17" height="14" viewBox="0 0 17 14" fill="none" xmlns="http://www.w3.org/2000/svg">
<path d="M0.354584 0.292893C0.827363 -0.0976311 1.59389 -0.0976311 2.06667 0.292893L8.47438 5.58579L14.8821 0.292893C15.3549 -0.0976311 16.1214 -0.0976311 16.5942 0.292893C17.067 0.683417 17.067 1.31658 16.5942 1.70711L10.1865 7L16.5942 12.2929C17.067 12.6834 17.067 13.3166 16.5942 13.7071C16.1214 14.0976 15.3549 14.0976 14.8821 13.7071L8.47438 8.41421L2.06667 13.7071C1.59389 14.0976 0.827363 14.0976 0.354584 13.7071C-0.118195 13.3166 -0.118195 12.6834 0.354584 12.2929L6.7623 7L0.354584 1.70711C-0.118195 1.31658 -0.118195 0.683417 0.354584 0.292893Z" fill="white"/>
</svg>
