<svg width="10" height="12" viewBox="0 0 10 12" fill="none" xmlns="http://www.w3.org/2000/svg">
<path d="M3.06646 4.4C3.27816 4.4 3.44977 4.57909 3.44977 4.8V9.6C3.44977 9.82091 3.27815 10 3.06646 10C2.85477 10 2.68315 9.82091 2.68315 9.6V4.8C2.68315 4.57909 2.85477 4.4 3.06646 4.4Z" fill="white"/>
<path d="M4.983 4.4C5.19469 4.4 5.36631 4.57909 5.36631 4.8V9.6C5.36631 9.82091 5.19469 10 4.983 10C4.7713 10 4.59969 9.82091 4.59969 9.6V4.8C4.59969 4.57909 4.7713 4.4 4.983 4.4Z" fill="white"/>
<path d="M7.28284 4.8C7.28284 4.57909 7.11123 4.4 6.89954 4.4C6.68784 4.4 6.51623 4.57909 6.51623 4.8V9.6C6.51623 9.82091 6.68784 10 6.89954 10C7.11123 10 7.28284 9.82091 7.28284 9.6V4.8Z" fill="white"/>
<path fill-rule="evenodd" clip-rule="evenodd" d="M9.966 2.4C9.966 2.84183 9.62277 3.2 9.19938 3.2H8.81607V10.4C8.81607 11.2837 8.12962 12 7.28284 12H2.68315C1.83637 12 1.14992 11.2837 1.14992 10.4V3.2H0.766615C0.343225 3.2 0 2.84183 0 2.4V1.6C0 1.15817 0.343225 0.8 0.766615 0.8H3.44977C3.44977 0.358172 3.79299 0 4.21638 0H5.74961C6.173 0 6.51623 0.358172 6.51623 0.8H9.19938C9.62277 0.8 9.966 1.15817 9.966 1.6V2.4ZM2.00702 3.2L1.91654 3.24721V10.4C1.91654 10.8418 2.25976 11.2 2.68315 11.2H7.28284C7.70623 11.2 8.04946 10.8418 8.04946 10.4V3.24721L7.95897 3.2H2.00702ZM0.766615 2.4V1.6H9.19938V2.4H0.766615Z" fill="white"/>
</svg>
