<svg width="12" height="12" viewBox="0 0 12 12" fill="none" xmlns="http://www.w3.org/2000/svg">
<path d="M10.3125 0.383295L10.4257 0.27011C10.7858 -0.0900363 11.3697 -0.0900367 11.7299 0.270109C12.09 0.630255 12.09 1.21417 11.7299 1.57431L11.6167 1.6875C12.0187 2.13749 12.0036 2.82853 11.5717 3.26051L3.70805 11.1241C3.65909 11.1731 3.59775 11.2078 3.53059 11.2246L0.474647 11.9886C0.344474 12.0211 0.20677 11.983 0.111891 11.8881C0.0170117 11.7932 -0.0211299 11.6555 0.0114134 11.5254L0.775398 8.46941C0.79219 8.40225 0.82692 8.34091 0.875876 8.29195L8.24165 0.926172C8.09258 0.821051 7.88512 0.835179 7.75174 0.968555L5.23602 3.48428C5.08684 3.63345 4.84498 3.63345 4.6958 3.48428C4.54662 3.3351 4.54662 3.09323 4.6958 2.94406L7.21152 0.428336C7.64392 -0.00405908 8.33588 -0.0186844 8.78583 0.384461C9.2196 -0.00418201 9.87828 -0.00457057 10.3125 0.383295ZM9.81993 0.968555C9.67075 0.819378 9.42889 0.819378 9.27971 0.968555L1.49091 8.75735L0.906999 11.093L3.24265 10.5091L11.0314 2.72029C11.1806 2.57111 11.1806 2.32925 11.0314 2.18007L9.81993 0.968555Z" fill="white"/>
</svg>
