<svg width="48" height="48" viewBox="0 0 48 48" fill="none" xmlns="http://www.w3.org/2000/svg">
<path d="M24 3C24 1.34315 25.3431 0 27 0H45C46.6569 0 48 1.34315 48 3V45C48 46.6569 46.6569 48 45 48H27C25.3431 48 24 46.6569 24 45V3ZM27 43.5C27 44.3284 27.6716 45 28.5 45C29.3284 45 30 44.3284 30 43.5C30 42.6716 29.3284 42 28.5 42C27.6716 42 27 42.6716 27 43.5ZM33 43.5C33 44.3284 33.6716 45 34.5 45C35.3284 45 36 44.3284 36 43.5C36 42.6716 35.3284 42 34.5 42C33.6716 42 33 42.6716 33 43.5ZM28.5 3C27.6716 3 27 3.67157 27 4.5C27 5.32843 27.6716 6 28.5 6H43.5C44.3284 6 45 5.32843 45 4.5C45 3.67157 44.3284 3 43.5 3H28.5ZM27 10.5C27 11.3284 27.6716 12 28.5 12H43.5C44.3284 12 45 11.3284 45 10.5C45 9.67157 44.3284 9 43.5 9H28.5C27.6716 9 27 9.67157 27 10.5Z" fill="white"/>
<path d="M4.5 6C2.01472 6 0 8.01472 0 10.5V31.5C0 33.9853 2.01472 36 4.5 36H18V42H16.5C15.6716 42 15 42.6716 15 43.5C15 44.3284 15.6716 45 16.5 45H21V33H4.5C3.67157 33 3 32.3284 3 31.5V10.5C3 9.67157 3.67157 9 4.5 9H21V6H4.5Z" fill="white"/>
</svg>
