<svg width="64" height="24" viewBox="0 0 64 24" fill="none" xmlns="http://www.w3.org/2000/svg">
<path d="M12 0C7.58172 0 4 3.58172 4 8V10H2C0.89543 10 0 10.8954 0 12C0 13.1046 0.89543 14 2 14H4V16C4 20.4183 7.58172 24 12 24H16C22.6274 24 28 18.6274 28 12C28 9.79086 29.7909 8 32 8C34.2091 8 36 9.79086 36 12C36 18.6274 41.3726 24 48 24H52C56.4183 24 60 20.4183 60 16V14H62C63.1046 14 64 13.1046 64 12C64 10.8954 63.1046 10 62 10H60V8C60 3.58172 56.4183 0 52 0H44C40.5104 0 37.5426 2.23429 36.4492 5.35036C35.1771 4.49749 33.6466 4 32 4C30.3534 4 28.8229 4.49749 27.5508 5.35036C26.4574 2.23429 23.4896 0 20 0H12ZM12 4H15.7639C16.8192 4 17.155 5.42252 16.2111 5.89443L14.3851 6.80743C12.8369 7.58154 11.5815 8.83692 10.8074 10.3851L9.89443 12.2111C9.42252 13.155 8 12.8192 8 11.7639V8C8 5.79086 9.79086 4 12 4Z" fill="white"/>
</svg>
