<svg width="53" height="49" viewBox="0 0 53 49" fill="none" xmlns="http://www.w3.org/2000/svg">
<path d="M29.0612 1.22644C27.7021 -0.132605 25.4987 -0.132612 24.1396 1.22644L1.00964 24.3564C0.330119 25.0359 0.330119 26.1377 1.00964 26.8172C1.68916 27.4967 2.79089 27.4967 3.47041 26.8172L26.6004 3.68721L49.7304 26.8172C50.4099 27.4967 51.5116 27.4967 52.1912 26.8172C52.8707 26.1377 52.8707 25.0359 52.1912 24.3564L44.0007 16.1659V4.70649C44.0007 3.7455 43.2216 2.96646 42.2606 2.96646H38.7806C37.8196 2.96646 37.0406 3.7455 37.0406 4.70649V9.20583L29.0612 1.22644Z" fill="white"/>
<path d="M26.6004 7.4658L47.4807 28.3461V42.9871C47.4807 45.87 45.1436 48.2072 42.2606 48.2072H10.9402C8.05719 48.2072 5.72008 45.87 5.72008 42.9871V28.3461L26.6004 7.4658Z" fill="white"/>
</svg>
